<svg aria-hidden="true" style="position: absolute; width: 0; height: 0; overflow: hidden;" version="1.1" xmlns="http://www.w3.org/2000/svg" xmlns:xlink="http://www.w3.org/1999/xlink">
<defs>
<symbol id="icon-Frame-57" viewBox="0 0 32 32">
<path fill="#0d7680" style="fill: var(--color1, #0d7680)" d="M31.968 16c0 8.827-7.166 16-15.984 16s-15.984-7.173-15.984-16 7.166-16 15.984-16c0.972 0 1.958 0.093 2.904 0.267 0.719 0.133 1.199 0.827 1.066 1.547s-0.826 1.2-1.545 1.067c-0.786-0.147-1.612-0.213-2.424-0.213-7.339 0-13.32 5.987-13.32 13.333s5.981 13.333 13.32 13.333c7.339 0 13.32-5.987 13.32-13.333 0-0.813-0.080-1.627-0.213-2.427-0.133-0.72 0.346-1.413 1.066-1.547 0.733-0.133 1.412 0.347 1.545 1.067 0.173 0.947 0.266 1.933 0.266 2.907zM17.129 8.080c0.733 0.107 1.399-0.4 1.505-1.133s-0.4-1.4-1.132-1.507c-0.506-0.067-1.012-0.107-1.518-0.107-5.874 0-10.656 4.787-10.656 10.667s4.782 10.667 10.656 10.667c5.874 0 10.656-4.787 10.656-10.667 0-0.507-0.040-1.013-0.107-1.52-0.107-0.733-0.773-1.24-1.505-1.133s-1.239 0.773-1.132 1.507c0.053 0.373 0.080 0.76 0.080 1.147 0 4.413-3.583 8-7.992 8s-7.992-3.587-7.992-8 3.583-8 7.992-8c0.386 0 0.773 0.027 1.146 0.080zM14.319 12.133c-0.493-0.547-1.332-0.6-1.878-0.107-1.132 1.013-1.772 2.467-1.772 3.973 0 2.947 2.384 5.333 5.328 5.333 1.518 0 2.957-0.653 3.969-1.773 0.493-0.547 0.44-1.387-0.107-1.88s-1.385-0.44-1.878 0.107c-0.506 0.56-1.225 0.893-1.985 0.893-1.465 0-2.664-1.2-2.664-2.667 0-0.76 0.32-1.48 0.892-1.987 0.546-0.493 0.599-1.333 0.107-1.88l-0.013-0.013zM16.384 13.733c-0.519 0.52-0.519 1.36 0 1.88 0.266 0.267 0.599 0.387 0.946 0.387s0.679-0.133 0.946-0.387l6.274-6.28h3.45c0.36 0 0.693-0.147 0.946-0.387l2.664-2.667c0.386-0.387 0.493-0.96 0.293-1.453s-0.693-0.827-1.225-0.827h-2.664v-2.667c0-0.533-0.32-1.027-0.826-1.227-0.506-0.213-1.066-0.093-1.452 0.293l-2.664 2.667c-0.253 0.253-0.386 0.587-0.386 0.947v3.453l-6.274 6.28-0.027-0.013z"></path>
</symbol>
<symbol id="icon-Frame-58" viewBox="0 0 32 32">
<path fill="#0d7680" style="fill: var(--color1, #0d7680)" d="M28-0.525h-24c-2.205 0-4 1.795-4 4v28h32v-28c0-2.205-1.795-4-4-4zM29.333 28.809h-26.667v-25.333c0-0.735 0.597-1.333 1.333-1.333h24c0.736 0 1.333 0.599 1.333 1.333v25.333zM13.333 12.809c0 0.504 0.361 0.931 0.859 1.013l4.055 0.676c1.789 0.297 3.087 1.831 3.087 3.644 0 2.205-1.795 4-4 4v2.667h-2.667v-2.667c-2.205 0-4-1.795-4-4h2.667c0 0.736 0.597 1.333 1.333 1.333h2.667c0.736 0 1.333-0.597 1.333-1.333 0-0.504-0.361-0.931-0.859-1.013l-4.055-0.676c-1.789-0.297-3.087-1.831-3.087-3.644 0-2.205 1.795-4 4-4v-2.667h2.667v2.667c2.205 0 4 1.795 4 4h-2.667c0-0.735-0.597-1.333-1.333-1.333h-2.667c-0.736 0-1.333 0.599-1.333 1.333z"></path>
</symbol>
<symbol id="icon-Frame-59" viewBox="0 0 32 32">
<path fill="#0d7680" style="fill: var(--color1, #0d7680)" d="M6.667 26.673c0 1.843-1.492 3.336-3.333 3.336s-3.333-1.493-3.333-3.336c0-1.843 1.492-3.336 3.333-3.336s3.333 1.493 3.333 3.336zM28.667 8.658c1.841 0 3.333-1.493 3.333-3.336s-1.492-3.336-3.333-3.336c-1.841 0-3.333 1.493-3.333 3.336s1.492 3.336 3.333 3.336zM27.333 19.333v2.002h2.667v-2.002c0-3.311-2.692-6.005-6-6.005h-18c-1.837 0-3.333-1.497-3.333-3.336s1.496-3.336 3.333-3.336h12.609l-2.185 2.187 1.885 1.887 3.681-3.684c0.448-0.448 0.696-1.046 0.696-1.68s-0.248-1.233-0.696-1.68l-3.681-3.686-1.885 1.887 2.099 2.1h-12.523c-3.308 0-6 2.694-6 6.005s2.692 6.005 6 6.005h18c1.837 0 3.333 1.497 3.333 3.336zM28.667 23.44c-1.841 0-3.333 1.493-3.333 3.336s1.492 3.336 3.333 3.336 3.333-1.493 3.333-3.336c0-1.843-1.492-3.336-3.333-3.336zM18.391 21.433l-1.885 1.887 2.017 2.019h-9.189v2.669h9.276l-2.104 2.106 1.885 1.887 3.613-3.616c0.917-0.918 0.917-2.414 0-3.335l-3.613-3.616z"></path>
</symbol>
<symbol id="icon-Frame-60" viewBox="0 0 25 32">
<path fill="none" stroke="#0d7680" style="stroke: var(--color1, #0d7680)" stroke-linejoin="miter" stroke-linecap="butt" stroke-miterlimit="4" stroke-width="2.3704" d="M21.259 5.333h-17.63c-0.573 0-1.037 0.696-1.037 1.556v15.556c0 0.859 0.464 1.556 1.037 1.556h17.63c0.573 0 1.037-0.696 1.037-1.556v-15.556c0-0.859-0.464-1.556-1.037-1.556z"></path>
<path fill="none" stroke="#0d7680" style="stroke: var(--color1, #0d7680)" stroke-linejoin="round" stroke-linecap="round" stroke-miterlimit="4" stroke-width="2.3704" d="M2.074 30.222h20.741M11.407 10h2.074"></path>
</symbol>
<symbol id="icon-Frame-61" width="42" height="43" viewBox="0 0 33 32">
<path fill="#0d7680" style="fill: var(--color1, #0d7680)" d="M29.167 20h-14.917c-1.111 0-2.153-0.413-2.944-1.173l-1.972-1.88c-0.264-0.253-0.403-0.587-0.403-0.947s0.153-0.693 0.403-0.947l1.972-1.88c0.792-0.76 1.833-1.173 2.944-1.173h14.917c2.292 0 4.167 1.8 4.167 4s-1.875 4-4.167 4zM12.292 16l0.986 0.947c0.264 0.253 0.611 0.387 0.986 0.387h14.917c0.764 0 1.389-0.6 1.389-1.333s-0.625-1.333-1.389-1.333h-14.931c-0.361 0-0.722 0.147-0.986 0.387l-0.986 0.947h0.014zM25 8h-10.75c-1.111 0-2.153-0.413-2.944-1.173l-1.972-1.88c-0.264-0.253-0.403-0.587-0.403-0.947s0.153-0.693 0.403-0.947l1.972-1.88c0.792-0.76 1.833-1.173 2.944-1.173h10.75c2.292 0 4.167 1.8 4.167 4s-1.875 4-4.167 4zM12.292 4l0.986 0.947c0.264 0.253 0.611 0.387 0.986 0.387h10.75c0.764 0 1.389-0.6 1.389-1.333s-0.625-1.333-1.389-1.333h-10.75c-0.361 0-0.722 0.147-0.986 0.387l-0.986 0.947zM22.222 32h-7.972c-1.111 0-2.153-0.413-2.944-1.173l-1.972-1.88c-0.264-0.253-0.403-0.587-0.403-0.947s0.153-0.693 0.403-0.947l1.972-1.88c0.792-0.76 1.833-1.173 2.944-1.173h7.972c2.292 0 4.167 1.8 4.167 4s-1.875 4-4.167 4zM12.292 28l0.986 0.947c0.264 0.253 0.611 0.387 0.986 0.387h7.972c0.764 0 1.389-0.6 1.389-1.333s-0.625-1.333-1.389-1.333h-7.972c-0.361 0-0.722 0.147-0.986 0.387l-0.986 0.947zM2.778 25.333c-1.528 0-2.778 1.2-2.778 2.667s1.25 2.667 2.778 2.667c1.528 0 2.778-1.2 2.778-2.667s-1.25-2.667-2.778-2.667zM2.778 13.333c-1.528 0-2.778 1.2-2.778 2.667s1.25 2.667 2.778 2.667c1.528 0 2.778-1.2 2.778-2.667s-1.25-2.667-2.778-2.667zM2.778 1.333c-1.528 0-2.778 1.2-2.778 2.667s1.25 2.667 2.778 2.667c1.528 0 2.778-1.2 2.778-2.667s-1.25-2.667-2.778-2.667z"></path>
</symbol>
<symbol id="icon-Frame-63" viewBox="0 0 29 32">
<path fill="#0d7680" style="fill: var(--color1, #0d7680)" d="M24.367 23.995h-0.453c-1.808-4.295-3.066-8.773-3.748-13.342h1.334c0.38 0 0.745-0.141 1.014-0.391s0.42-0.59 0.42-0.943c0-0.354-0.151-0.693-0.42-0.943s-0.633-0.391-1.014-0.391h-0.677c0 0 1.836-2.954 1.855-2.995 0.248-0.515 0.308-1.090 0.172-1.64s-0.461-1.043-0.925-1.405c-0.464-0.362-1.043-0.574-1.648-0.602s-1.203 0.128-1.705 0.445l-0.97 0.486c0 0-1.175-1.448-1.217-1.493-0.548-0.5-1.285-0.781-2.053-0.781s-1.505 0.28-2.053 0.781c-0.042 0.040-1.217 1.481-1.217 1.481l-0.97-0.48c-0.501-0.317-1.1-0.473-1.705-0.445s-1.184 0.24-1.648 0.602-0.789 0.856-0.925 1.405c-0.136 0.55-0.075 1.125 0.172 1.64 0.019 0.048 1.855 3.002 1.855 3.002h-0.677c-0.38 0-0.745 0.141-1.014 0.391s-0.42 0.59-0.42 0.943c0 0.354 0.151 0.693 0.42 0.943s0.633 0.391 1.014 0.391h1.334c-0.683 4.569-1.941 9.047-3.748 13.342h-0.453c-1.14 0-2.234 0.422-3.041 1.172s-1.259 1.769-1.259 2.83c0 1.062 0.453 2.080 1.259 2.83s1.9 1.172 3.041 1.172h20.067c1.14 0 2.234-0.422 3.041-1.172s1.259-1.769 1.259-2.83-0.453-2.080-1.259-2.83c-0.806-0.751-1.9-1.172-3.041-1.172zM10.787 5.158c0.302 0.151 0.653 0.197 0.988 0.128s0.633-0.247 0.838-0.503l1.72-2.117 1.72 2.117c0.206 0.254 0.504 0.431 0.838 0.499s0.684 0.022 0.985-0.129l2.020-1.011-2.388 3.844h-6.35l-2.401-3.844 2.030 1.017zM11.379 10.653h5.908c0.611 4.564 1.807 9.043 3.565 13.342h-13.043c1.759-4.298 2.958-8.777 3.57-13.342zM24.367 29.332h-20.067c-0.38 0-0.745-0.141-1.014-0.391s-0.42-0.59-0.42-0.943c0-0.354 0.151-0.693 0.42-0.943s0.633-0.391 1.014-0.391h20.067c0.38 0 0.745 0.141 1.014 0.391s0.42 0.59 0.42 0.943c0 0.354-0.151 0.693-0.42 0.943s-0.633 0.391-1.014 0.391z"></path>
</symbol>
<symbol id="icon-Frame-64" viewBox="0 0 32 32">
<path fill="#0d7680" style="fill: var(--color1, #0d7680)" d="M28.981 21.867c-0.448-1.32-1.297-2.467-2.43-3.28s-2.491-1.251-3.885-1.253h-5.333v-1.445c1.978-0.334 3.758-1.399 4.988-2.984s1.819-3.574 1.651-5.573c-0.168-1.999-1.080-3.862-2.557-5.22s-3.409-2.111-5.415-2.111c-2.006 0-3.939 0.754-5.415 2.111s-2.389 3.221-2.557 5.22c-0.168 1.999 0.422 3.988 1.651 5.573s3.010 2.65 4.988 2.984v1.445h-5.333c-1.394 0.002-2.752 0.44-3.885 1.253s-1.982 1.96-2.43 3.28c-1.144 0.552-2.053 1.494-2.565 2.656s-0.591 2.469-0.225 3.686 1.155 2.262 2.223 2.948c1.068 0.687 2.347 0.97 3.605 0.798s2.414-0.787 3.259-1.735 1.324-2.166 1.351-3.436c0.027-1.27-0.4-2.507-1.204-3.49s-1.933-1.647-3.183-1.872c0.375-0.445 0.842-0.802 1.369-1.047s1.101-0.373 1.683-0.374h5.333v1.503c-1.257 0.325-2.352 1.096-3.081 2.171s-1.040 2.378-0.877 3.665 0.791 2.472 1.765 3.33c0.974 0.858 2.228 1.332 3.526 1.332s2.552-0.473 3.526-1.332 1.602-2.042 1.765-3.33c0.164-1.288-0.148-2.591-0.877-3.665s-1.824-1.846-3.081-2.171v-1.503h5.333c0.581 0 1.155 0.127 1.682 0.372s0.994 0.601 1.37 1.045c-1.25 0.225-2.378 0.889-3.183 1.872s-1.231 2.221-1.204 3.49c0.027 1.27 0.506 2.488 1.351 3.436s2.001 1.563 3.259 1.735c1.258 0.172 2.537-0.111 3.605-0.798s1.857-1.732 2.223-2.948c0.366-1.216 0.287-2.523-0.225-3.686s-1.421-2.104-2.565-2.656v0.004zM10.667 8c0-1.055 0.313-2.086 0.899-2.963s1.419-1.561 2.394-1.964c0.975-0.404 2.047-0.509 3.081-0.304s1.985 0.714 2.731 1.46c0.746 0.746 1.254 1.696 1.46 2.731s0.1 2.107-0.303 3.081c-0.404 0.975-1.087 1.807-1.964 2.394s-1.908 0.899-2.963 0.899c-1.414 0-2.771-0.562-3.771-1.562s-1.562-2.357-1.562-3.771zM8 26.667c0 0.527-0.156 1.043-0.449 1.482s-0.71 0.78-1.197 0.982c-0.487 0.202-1.023 0.255-1.541 0.152s-0.992-0.357-1.365-0.73-0.627-0.848-0.73-1.365c-0.103-0.517-0.050-1.053 0.152-1.541s0.544-0.904 0.982-1.197 0.954-0.449 1.482-0.449c0.707 0 1.386 0.281 1.886 0.781s0.781 1.178 0.781 1.886zM18.667 26.667c0 0.527-0.156 1.043-0.449 1.482s-0.709 0.78-1.197 0.982-1.023 0.255-1.541 0.152c-0.517-0.103-0.992-0.357-1.365-0.73s-0.627-0.848-0.73-1.365c-0.103-0.517-0.050-1.053 0.152-1.541s0.544-0.904 0.982-1.197 0.954-0.449 1.482-0.449c0.707 0 1.386 0.281 1.886 0.781s0.781 1.178 0.781 1.886zM26.667 29.333c-0.527 0-1.043-0.156-1.482-0.449s-0.78-0.709-0.982-1.197c-0.202-0.487-0.255-1.023-0.152-1.541s0.357-0.992 0.73-1.365c0.373-0.373 0.848-0.627 1.365-0.73s1.053-0.050 1.541 0.152 0.904 0.544 1.197 0.982c0.293 0.439 0.449 0.954 0.449 1.482 0 0.707-0.281 1.386-0.781 1.886s-1.178 0.781-1.886 0.781z"></path>
</symbol>
<symbol id="icon-chart" viewBox="0 0 31 32">
<path fill="#0d7680" style="fill: var(--color1, #0d7680)" d="M29.953 29.333h-23.442c-1.036 0-2.030-0.421-2.763-1.172s-1.144-1.768-1.144-2.828v-24c0-0.354-0.137-0.693-0.381-0.943s-0.575-0.391-0.921-0.391c-0.345 0-0.677 0.14-0.921 0.391s-0.381 0.589-0.381 0.943v24c0.002 1.767 0.689 3.462 1.909 4.712s2.876 1.953 4.602 1.955h23.442c0.345 0 0.677-0.14 0.921-0.391s0.381-0.589 0.381-0.943c0-0.354-0.137-0.693-0.381-0.943s-0.575-0.39-0.921-0.39z"></path>
<path fill="#0d7680" style="fill: var(--color1, #0d7680)" d="M7.814 26.667c0.345 0 0.677-0.14 0.921-0.391s0.381-0.589 0.381-0.943v-9.333c0-0.354-0.137-0.693-0.381-0.943s-0.575-0.391-0.921-0.391c-0.345 0-0.677 0.14-0.921 0.391s-0.381 0.589-0.381 0.943v9.333c0 0.354 0.137 0.693 0.381 0.943s0.575 0.391 0.921 0.391z"></path>
<path fill="#0d7680" style="fill: var(--color1, #0d7680)" d="M13.023 13.333v12c0 0.354 0.137 0.693 0.381 0.943s0.575 0.39 0.921 0.39c0.345 0 0.677-0.14 0.921-0.39s0.381-0.589 0.381-0.943v-12c0-0.354-0.137-0.693-0.381-0.943s-0.575-0.391-0.921-0.391c-0.345 0-0.677 0.14-0.921 0.391s-0.381 0.589-0.381 0.943z"></path>
<path fill="#0d7680" style="fill: var(--color1, #0d7680)" d="M19.535 17.333v8c0 0.354 0.137 0.693 0.381 0.943s0.575 0.39 0.921 0.39c0.345 0 0.677-0.14 0.921-0.39s0.381-0.589 0.381-0.943v-8c0-0.354-0.137-0.693-0.381-0.943s-0.575-0.391-0.921-0.391-0.677 0.141-0.921 0.391c-0.244 0.25-0.381 0.589-0.381 0.943z"></path>
<path fill="#0d7680" style="fill: var(--color1, #0d7680)" d="M26.047 12v13.333c0 0.354 0.137 0.693 0.381 0.943s0.575 0.391 0.921 0.391 0.677-0.14 0.921-0.391c0.244-0.25 0.381-0.589 0.381-0.943v-13.333c0-0.354-0.137-0.693-0.381-0.943s-0.575-0.391-0.921-0.391-0.677 0.14-0.921 0.391c-0.244 0.25-0.381 0.589-0.381 0.943z"></path>
<path fill="#0d7680" style="fill: var(--color1, #0d7680)" d="M7.814 12c0.345-0 0.677-0.141 0.921-0.391l4.67-4.781c0.248-0.242 0.578-0.377 0.921-0.377s0.673 0.135 0.921 0.377l2.829 2.896c0.733 0.75 1.726 1.171 2.762 1.171s2.030-0.421 2.762-1.171l7.275-7.448c0.237-0.251 0.368-0.588 0.365-0.938s-0.14-0.684-0.381-0.931c-0.241-0.247-0.568-0.387-0.91-0.39s-0.67 0.131-0.916 0.374l-7.275 7.447c-0.244 0.25-0.575 0.39-0.921 0.39s-0.677-0.14-0.921-0.39l-2.829-2.895c-0.733-0.75-1.726-1.171-2.762-1.171s-2.030 0.421-2.762 1.171l-4.67 4.781c-0.182 0.187-0.306 0.424-0.356 0.683s-0.024 0.527 0.074 0.77c0.099 0.244 0.265 0.452 0.48 0.598s0.466 0.225 0.723 0.225z"></path>
</symbol>
<symbol id="icon-circle" viewBox="0 0 29 32">
<path fill="#0d7680" style="fill: var(--color1, #0d7680)" d="M0 16c0-4.243 1.551-8.313 4.311-11.314s6.505-4.686 10.409-4.686c3.904 0 7.648 1.686 10.409 4.686s4.311 7.070 4.311 11.314-1.551 8.313-4.311 11.314c-2.76 3.001-6.505 4.686-10.409 4.686s-7.648-1.686-10.409-4.686c-2.761-3.001-4.311-7.070-4.311-11.314zM13.88 22.848l8.475-11.516-1.531-1.331-7.227 9.815-5.119-4.636-1.256 1.638 6.657 6.029z"></path>
</symbol>
<symbol id="icon-arrow-right" viewBox="0 0 28 32">
<path d="M24.401 17.015l-7.826 8.609c-0.245 0.27-0.577 0.421-0.924 0.421s-0.679-0.151-0.924-0.421c-0.245-0.27-0.383-0.635-0.383-1.016s0.138-0.747 0.383-1.016l5.599-6.156h-15.978c-0.346 0-0.678-0.151-0.922-0.42s-0.382-0.634-0.382-1.015c0-0.381 0.137-0.745 0.382-1.015s0.576-0.42 0.922-0.42h15.978l-5.597-6.16c-0.245-0.27-0.383-0.635-0.383-1.016s0.138-0.747 0.383-1.016c0.245-0.27 0.577-0.421 0.924-0.421s0.679 0.151 0.924 0.421l7.826 8.609c0.122 0.133 0.218 0.292 0.284 0.467s0.099 0.362 0.099 0.551c-0 0.189-0.034 0.376-0.1 0.551s-0.163 0.333-0.285 0.466z"></path>
</symbol>

<symbol id="icon-Logo" viewBox="0 0 31 32">
<path fill="#fff" style="fill: var(--color1, #fff)" d="M24.359 24.908h-16.987v-24.461l0.834-0.076c0.038 0 0.228-0.038 0.569-0.038 1.517 0 5.384 0.341 8.911 3.451 2.010 1.745 3.602 4.134 4.702 7.054 1.327 3.489 2.010 7.775 2.010 12.781v1.289h-0.038zM9.193 23.088h13.385c-0.076-8.457-2.123-14.487-6.067-17.938-2.806-2.465-5.801-2.92-7.318-2.996v20.934z"></path>
<path fill="#fff" style="fill: var(--color1, #fff)" d="M31.297 28.808c-0.754-0.731-1.507-1.197-2.333-1.197-0.754 0-1.507 0.399-2.225 1.064s-1.472 0.997-2.225 0.997-1.472-0.332-2.154-0.931c-0.754-0.731-1.507-1.197-2.333-1.197-0.754 0-1.507 0.399-2.225 1.064s-1.472 0.997-2.225 0.997-1.472-0.332-2.154-0.931c-0.754-0.731-1.507-1.197-2.333-1.197-0.754 0-1.507 0.399-2.225 1.064s-1.472 0.997-2.225 0.997c-0.754 0-1.472-0.332-2.154-0.931-0.754-0.731-1.507-1.197-2.333-1.197-0.754 0-1.507 0.399-2.225 1.064v2.061c0.718-0.731 1.436-1.13 2.225-1.13 0.682 0 1.364 0.332 2.010 0.931 0.036 0.066 0.108 0.066 0.144 0.133 0.682 0.598 1.364 0.931 2.082 0.997h0.251c0.754 0 1.507-0.332 2.225-0.997 0.718-0.731 1.436-1.13 2.225-1.13 0.682 0 1.364 0.332 2.010 0.931 0.036 0.066 0.108 0.066 0.144 0.133 0.682 0.598 1.364 0.931 2.082 0.997h0.251c0.754 0 1.113 0 2.225-0.997 0.718-0.731 1.436-1.13 2.225-1.13 0.682 0 1.364 0.332 2.010 0.931 0.036 0.067 0.108 0.067 0.144 0.133 0.682 0.598 1.364 0.931 2.082 0.997h0.251c0.754 0 1.507-0.332 2.225-0.997 0.718-0.731 1.436-1.13 2.225-1.13 0.682 0 1.364 0.332 2.010 0.931 0.036 0.066 0.108 0.066 0.144 0.133l0.215 0.199v-1.994c0 0.332 0 0.332-0.036 0.332z"></path>
</symbol>

<symbol id="icon-left" viewBox="0 0 18 32">
<path fill="none"   stroke-linejoin="round" stroke-linecap="round" stroke-miterlimit="4" stroke-width="3" d="M15.8 2.7l-13.3 13.3 13.3 13.3"></path>
</symbol>

<symbol id="icon-right" viewBox="0 0 18 32">
<path fill="none"   stroke-linejoin="round" stroke-linecap="round" stroke-miterlimit="4" stroke-width="3" d="M2.2 2.7l13.3 13.3-13.3 13.3"></path>
</symbol>

<symbol id="icon-linkedin" viewBox="0 0 32 32">
<path  d="M16 0.64c-8.483 0-15.36 6.877-15.36 15.36s6.877 15.36 15.36 15.36c8.483 0 15.36-6.877 15.36-15.36s-6.877-15.36-15.36-15.36zM12.24 22.366h-3.11v-10.010h3.11v10.010zM10.666 11.128c-0.982 0-1.618-0.696-1.618-1.557 0-0.878 0.654-1.554 1.658-1.554s1.618 0.675 1.637 1.554c0 0.861-0.634 1.557-1.677 1.557zM23.6 22.366h-3.11v-5.547c0-1.291-0.451-2.168-1.576-2.168-0.859 0-1.37 0.594-1.595 1.165-0.083 0.203-0.104 0.491-0.104 0.778v5.771h-3.112v-6.816c0-1.25-0.040-2.294-0.082-3.194h2.702l0.142 1.39h0.062c0.41-0.653 1.413-1.616 3.091-1.616 2.046 0 3.581 1.371 3.581 4.318v5.918z"></path>
</symbol>

<symbol id="icon-twiter" viewBox="0 0 31 32">
<path  d="M30.769 16c0 8.497-6.888 15.385-15.385 15.385s-15.385-6.888-15.385-15.385c0-8.497 6.888-15.385 15.385-15.385s15.385 6.888 15.385 15.385z"></path>
<path style="fill: var(--color2, #0d7680)" d="M16.672 15.484l5.040-6.254h-1.194l-4.375 5.43-3.496-5.43h-4.031l5.286 8.212-5.286 6.558h1.194l4.621-5.735 3.692 5.735h4.031l-5.482-8.516zM15.037 17.514l-4.797-7.323h1.835l8.444 12.894h-1.835l-3.647-5.57z"></path>
</symbol>

<symbol id="icon-Address" viewBox="0 0 22 32">
<path fill="#b2d9da" style="fill: var(--color1, #b2d9da)" d="M11.2 15.2c-1.061 0-2.078-0.421-2.828-1.172s-1.172-1.768-1.172-2.828c0-1.061 0.421-2.078 1.172-2.828s1.768-1.172 2.828-1.172c1.061 0 2.078 0.421 2.828 1.172s1.172 1.768 1.172 2.828c0 0.525-0.103 1.045-0.304 1.531s-0.496 0.926-0.867 1.298c-0.371 0.371-0.812 0.666-1.298 0.867s-1.005 0.304-1.531 0.304zM11.2 0c-2.97 0-5.819 1.18-7.92 3.28s-3.28 4.949-3.28 7.92c0 8.4 11.2 20.8 11.2 20.8s11.2-12.4 11.2-20.8c0-2.97-1.18-5.819-3.28-7.92s-4.949-3.28-7.92-3.28z"></path>
</symbol>

<symbol id="icon-mail" viewBox="0 0 34 32">
<path fill="#b2d9da" style="fill: var(--color1, #b2d9da)" d="M30.6 1h-27.2c-1.87 0-3.383 1.688-3.383 3.75l-0.017 22.5c0 2.062 1.53 3.75 3.4 3.75h27.2c1.87 0 3.4-1.688 3.4-3.75v-22.5c0-2.063-1.53-3.75-3.4-3.75zM30.6 8.5l-13.6 9.375-13.6-9.375v-3.75l13.6 9.375 13.6-9.375v3.75z"></path>
</symbol>

<symbol id="icon-close" viewBox="0 0 32 32">
<path d="M5.86 4.040l-1.82 1.82 10.14 10.14-10.2 10.22 1.8 1.8 10.22-10.2 10.2 10.2 1.82-1.82-10.2-10.2 10.14-10.14-1.82-1.82-10.14 10.14z"></path>
</symbol>

<symbol id="icon-arrow-right" viewBox="0 0 28 32">
<path d="M24.401 17.015l-7.826 8.609c-0.245 0.27-0.577 0.421-0.924 0.421s-0.679-0.151-0.924-0.421c-0.245-0.27-0.383-0.635-0.383-1.016s0.138-0.747 0.383-1.016l5.599-6.156h-15.978c-0.346 0-0.678-0.151-0.922-0.42s-0.382-0.634-0.382-1.015c0-0.381 0.137-0.745 0.382-1.015s0.576-0.42 0.922-0.42h15.978l-5.597-6.16c-0.245-0.27-0.383-0.635-0.383-1.016s0.138-0.747 0.383-1.016c0.245-0.27 0.577-0.421 0.924-0.421s0.679 0.151 0.924 0.421l7.826 8.609c0.122 0.133 0.218 0.292 0.284 0.467s0.099 0.362 0.099 0.551c-0 0.189-0.034 0.376-0.1 0.551s-0.163 0.333-0.285 0.466z"></path>
</symbol>
</defs>
</svg>
